<svg width="17" height="8" viewBox="0 0 17 8" fill="none" xmlns="http://www.w3.org/2000/svg">
<path fill-rule="evenodd" clip-rule="evenodd" d="M0 3.81799C0 3.7055 0.0639625 3.59761 0.177817 3.51806C0.291671 3.43852 0.44609 3.39383 0.607104 3.39383L14.9263 3.39383L11.1051 0.725005C10.9912 0.645358 10.9271 0.537334 10.9271 0.424698C10.9271 0.312061 10.9912 0.204037 11.1051 0.124391C11.2191 0.044745 11.3738 4.76837e-07 11.535 4.76837e-07C11.6962 4.76837e-07 11.8508 0.044745 11.9648 0.124391L16.8216 3.51769C16.8782 3.55709 16.923 3.60389 16.9536 3.65543C16.9842 3.70696 17 3.7622 17 3.81799C17 3.87379 16.9842 3.92903 16.9536 3.98056C16.923 4.03209 16.8782 4.0789 16.8216 4.1183L11.9648 7.5116C11.8508 7.59124 11.6962 7.63599 11.535 7.63599C11.3738 7.63599 11.2191 7.59124 11.1051 7.5116C10.9912 7.43195 10.9271 7.32393 10.9271 7.21129C10.9271 7.09865 10.9912 6.99063 11.1051 6.91098L14.9263 4.24216L0.607104 4.24216C0.44609 4.24216 0.291671 4.19747 0.177817 4.11792C0.0639625 4.03837 0 3.93049 0 3.81799Z" fill="black"/>
</svg>
